<svg id="svg" version="1.1" width="400" height="266.6666666666667" viewBox="0 0 400 266.6666666666667" xmlns="http://www.w3.org/2000/svg" xmlns:xlink="http://www.w3.org/1999/xlink"><g id="svgg"><path id="path0" d="M145.443 90.659 C 136.753 93.341,126.964 96.335,117.448 99.222 C 113.796 100.330,107.643 102.204,103.776 103.385 C 99.909 104.567,96.276 105.650,95.703 105.792 C 94.591 106.067,93.647 106.908,93.851 107.441 C 93.920 107.619,94.230 109.855,94.541 112.411 C 95.150 117.418,95.251 117.708,96.386 117.708 L 97.135 117.708 97.135 132.569 C 97.135 148.500,97.113 148.234,98.506 148.820 C 99.548 149.258,168.512 149.102,170.833 148.657 C 175.643 147.733,177.874 144.574,177.886 138.671 C 177.907 128.799,172.937 124.341,162.849 125.185 C 157.279 125.650,157.671 126.043,157.403 119.732 L 157.229 115.636 157.916 115.375 C 158.925 114.991,159.164 114.030,159.069 110.751 C 158.949 106.606,159.413 106.850,152.413 107.255 C 149.295 107.435,144.753 107.691,142.318 107.823 C 139.883 107.956,133.609 108.307,128.376 108.603 C 123.144 108.900,118.105 109.107,117.179 109.063 L 115.495 108.984 117.708 108.280 C 120.006 107.550,127.658 105.332,144.141 100.621 C 149.440 99.106,154.560 97.640,155.518 97.364 C 157.795 96.708,157.815 96.579,156.253 92.716 C 154.097 87.385,155.308 87.616,145.443 90.659 M148.568 93.960 C 153.189 96.809,153.382 96.376,146.649 98.266 L 145.250 98.659 142.482 96.946 C 140.959 96.004,139.275 94.987,138.739 94.687 C 138.203 94.386,137.764 94.073,137.763 93.989 C 137.759 93.720,144.649 91.728,145.052 91.883 C 145.267 91.965,146.849 92.900,148.568 93.960 M134.304 98.220 C 136.348 99.390,138.021 100.426,138.021 100.523 C 138.021 100.683,135.622 101.455,132.126 102.421 L 130.788 102.790 127.091 100.592 C 125.058 99.383,123.468 98.321,123.558 98.231 C 123.757 98.031,129.663 96.154,130.203 96.119 C 130.415 96.105,132.260 97.051,134.304 98.220 M119.678 102.651 L 123.266 104.782 121.985 105.216 C 121.280 105.454,119.707 105.909,118.490 106.227 L 116.276 106.804 112.810 104.862 C 108.737 102.581,108.786 102.681,111.381 101.924 C 112.498 101.598,113.880 101.158,114.453 100.945 C 115.950 100.388,115.764 100.328,119.678 102.651 M103.287 107.507 C 108.229 109.799,111.656 111.558,110.677 111.301 C 110.319 111.207,109.226 110.729,108.249 110.239 C 107.271 109.750,104.810 108.586,102.780 107.654 C 99.532 106.162,98.250 105.469,98.742 105.469 C 98.824 105.469,100.869 106.386,103.287 107.507 M98.646 107.083 C 99.480 107.917,98.600 109.130,97.518 108.638 C 96.901 108.356,96.626 107.367,97.049 106.944 C 97.332 106.661,98.309 106.746,98.646 107.083 M153.125 108.213 C 153.125 108.329,149.383 113.911,149.034 114.317 C 148.920 114.449,141.871 114.779,141.693 114.661 C 141.636 114.623,142.515 113.190,143.646 111.476 L 145.703 108.360 147.266 108.267 C 150.091 108.098,153.125 108.070,153.125 108.213 M136.212 111.943 L 134.119 115.031 132.749 115.196 C 131.066 115.398,126.823 115.417,126.823 115.223 C 126.823 115.030,129.328 111.301,130.261 110.104 C 131.093 109.038,131.263 109.002,136.015 108.902 L 138.305 108.854 136.212 111.943 M123.698 109.824 C 123.698 109.928,122.848 111.270,121.810 112.807 L 119.922 115.602 118.620 115.733 C 116.047 115.992,112.500 116.109,112.506 115.934 C 112.511 115.769,116.161 110.576,116.540 110.195 C 116.684 110.050,118.979 109.860,122.721 109.682 C 123.258 109.656,123.698 109.720,123.698 109.824 M99.851 114.211 C 100.513 114.873,99.994 115.885,98.992 115.885 C 98.428 115.885,97.917 115.390,97.917 114.844 C 97.917 113.867,99.115 113.475,99.851 114.211 M107.915 114.388 C 108.613 115.503,106.805 116.300,106.075 115.200 C 105.751 114.712,105.759 114.590,106.141 114.209 C 106.668 113.681,107.526 113.768,107.915 114.388 M118.099 118.227 C 120.684 118.650,122.333 119.262,122.488 119.857 C 122.604 120.298,122.404 126.563,122.275 126.563 C 122.252 126.563,121.772 126.340,121.208 126.067 C 114.291 122.727,107.562 127.337,108.603 134.702 C 109.475 140.867,114.975 143.001,122.201 139.979 C 122.784 139.735,122.909 146.344,122.331 146.817 C 120.921 147.967,113.951 148.576,110.938 147.811 C 103.231 145.856,99.036 138.169,100.893 129.407 C 102.564 121.525,109.742 116.861,118.099 118.227 M130.458 119.436 C 133.566 121.272,132.000 125.781,128.255 125.781 C 124.421 125.781,122.958 121.449,126.137 119.510 C 127.172 118.879,129.449 118.840,130.458 119.436 M150.391 126.759 C 153.483 128.345,153.759 129.355,153.855 139.395 L 153.933 147.671 150.382 147.599 L 146.832 147.526 146.788 140.495 C 146.741 132.850,146.697 132.605,145.259 132.009 C 144.195 131.568,142.848 131.920,142.073 132.841 L 141.406 133.634 141.406 140.652 L 141.406 147.671 137.826 147.598 L 134.245 147.526 134.245 137.181 L 134.245 126.835 135.286 126.681 C 136.711 126.471,140.453 126.681,140.523 126.975 C 140.554 127.106,140.650 127.534,140.736 127.925 L 140.893 128.637 142.050 127.754 C 143.093 126.958,143.867 126.604,145.443 126.204 C 146.568 125.918,149.363 126.231,150.391 126.759 M169.854 126.815 C 173.448 128.171,175.255 131.546,175.259 136.914 L 175.260 138.802 168.852 138.802 L 162.444 138.802 162.614 139.518 C 163.387 142.772,168.305 143.746,172.732 141.523 C 173.430 141.172,174.050 140.885,174.110 140.885 C 174.170 140.885,174.219 142.120,174.219 143.629 L 174.219 146.373 172.982 146.907 C 165.541 150.122,157.561 147.261,155.823 140.755 C 153.250 131.124,160.963 123.462,169.854 126.815 M131.771 137.377 L 131.771 147.671 128.190 147.598 L 124.609 147.526 124.553 137.305 L 124.496 127.083 128.133 127.083 L 131.771 127.083 131.771 137.377 M163.716 131.522 C 163.081 132.022,162.505 133.407,162.501 134.440 C 162.500 134.849,162.822 134.896,165.625 134.896 L 168.750 134.896 168.750 134.097 C 168.750 131.503,165.714 129.950,163.716 131.522 " stroke="none" fill="#141415" fill-rule="evenodd"></path><path id="path1" d="M0.000 133.333 L 0.000 266.667 200.000 266.667 L 400.000 266.667 400.000 133.333 L 400.000 0.000 200.000 0.000 L 0.000 0.000 0.000 133.333 M155.907 91.562 C 158.207 96.844,158.231 96.766,154.022 97.943 C 152.454 98.381,148.770 99.425,145.833 100.263 C 140.826 101.691,137.120 102.759,122.852 106.883 C 116.753 108.646,115.474 109.071,116.177 109.098 C 116.409 109.107,119.691 108.941,123.469 108.728 C 127.247 108.516,133.620 108.160,137.630 107.938 C 141.641 107.716,147.756 107.362,151.220 107.152 C 154.684 106.943,157.643 106.771,157.795 106.771 C 158.820 106.771,159.115 107.746,159.115 111.140 C 159.115 114.640,158.840 115.625,157.863 115.625 C 157.421 115.625,157.518 124.535,157.964 124.976 C 158.050 125.061,160.321 125.090,163.010 125.041 C 172.598 124.867,176.500 127.463,177.795 134.880 C 178.982 141.675,177.042 146.648,172.526 148.387 L 170.703 149.089 134.898 149.159 C 108.159 149.212,98.907 149.153,98.362 148.927 C 96.858 148.304,96.875 148.496,96.875 132.565 L 96.875 117.969 96.256 117.969 C 95.210 117.969,95.023 117.379,94.348 111.958 C 93.593 105.900,93.474 106.309,96.224 105.510 C 98.979 104.709,111.443 100.930,122.396 97.575 C 127.767 95.929,136.497 93.273,141.797 91.673 C 147.096 90.072,151.901 88.612,152.474 88.429 C 154.149 87.895,154.416 88.138,155.907 91.562 M141.040 92.955 L 137.939 93.932 139.738 95.094 C 140.727 95.734,142.380 96.757,143.412 97.369 L 145.287 98.482 148.360 97.642 C 152.542 96.498,152.453 96.585,150.634 95.420 C 147.106 93.163,144.942 91.929,144.553 91.952 C 144.326 91.966,142.745 92.417,141.040 92.955 M126.563 97.356 L 123.568 98.325 126.432 100.042 C 131.315 102.969,130.147 102.866,136.784 100.955 C 138.141 100.564,138.163 100.587,134.285 98.355 C 130.286 96.052,130.504 96.080,126.563 97.356 M97.117 107.183 C 96.444 107.995,97.749 109.012,98.580 108.323 C 99.063 107.922,99.057 107.688,98.549 107.180 C 98.028 106.659,97.551 106.660,97.117 107.183 M148.914 108.317 C 147.242 108.398,145.827 108.522,145.769 108.594 C 145.712 108.665,144.767 110.042,143.670 111.654 L 141.676 114.583 142.933 114.583 C 143.625 114.583,145.264 114.507,146.576 114.414 L 148.961 114.245 150.784 111.566 C 152.936 108.406,153.104 108.054,152.437 108.122 C 152.171 108.149,150.585 108.236,148.914 108.317 M133.665 109.106 C 132.200 109.199,130.955 109.327,130.898 109.390 C 130.841 109.454,129.888 110.830,128.780 112.449 L 126.766 115.393 130.115 115.228 C 131.957 115.137,133.603 115.020,133.774 114.967 C 134.018 114.892,136.873 110.847,137.859 109.180 C 138.071 108.822,138.101 108.823,133.665 109.106 M98.372 114.083 C 97.726 114.460,97.801 115.338,98.503 115.603 C 99.719 116.062,100.621 114.673,99.496 114.072 C 98.897 113.751,98.944 113.750,98.372 114.083 M106.402 114.145 C 105.703 114.655,105.974 115.478,106.875 115.581 C 107.963 115.705,108.399 114.947,107.664 114.211 C 107.166 113.713,107.003 113.705,106.402 114.145 M248.705 125.341 C 248.711 134.623,248.730 134.995,249.161 134.285 C 249.407 133.877,250.559 132.002,251.720 130.118 L 253.831 126.693 257.644 126.621 C 259.742 126.581,261.458 126.624,261.458 126.717 C 261.458 126.809,260.245 128.600,258.763 130.695 C 257.281 132.791,255.767 134.957,255.400 135.509 L 254.733 136.512 255.477 137.775 C 255.886 138.469,257.487 140.947,259.034 143.281 C 260.581 145.616,261.885 147.673,261.932 147.852 C 262.021 148.192,255.704 148.338,254.527 148.022 C 254.177 147.928,253.547 147.100,252.797 145.747 C 252.148 144.577,250.963 142.448,250.164 141.016 L 248.710 138.411 248.639 143.229 L 248.568 148.047 245.182 148.047 L 241.797 148.047 241.730 131.844 L 241.663 115.641 244.985 115.568 C 246.812 115.528,248.395 115.531,248.503 115.575 C 248.610 115.620,248.701 120.014,248.705 125.341 M194.363 116.413 C 201.049 118.478,202.230 128.759,196.038 130.998 L 195.127 131.327 196.717 132.135 C 202.181 134.910,201.719 144.271,195.986 146.984 C 193.932 147.955,191.649 148.201,185.417 148.120 L 179.818 148.047 179.751 131.966 L 179.684 115.885 186.168 115.885 C 191.947 115.885,192.840 115.943,194.363 116.413 M110.987 118.740 C 104.322 120.545,100.684 125.799,100.703 133.594 C 100.729 144.533,110.045 150.786,121.029 147.238 L 122.396 146.796 122.396 143.450 C 122.396 141.610,122.362 140.104,122.322 140.104 C 122.281 140.104,121.549 140.357,120.694 140.666 C 113.866 143.138,108.510 139.981,108.476 133.464 C 108.437 126.071,113.947 123.094,121.948 126.185 C 122.380 126.352,122.406 126.130,122.339 122.893 L 122.266 119.422 120.703 118.929 C 118.300 118.171,113.436 118.077,110.987 118.740 M126.389 119.548 C 124.687 120.391,124.098 122.022,124.849 123.819 C 125.867 126.255,130.476 126.245,131.634 123.805 C 133.133 120.646,129.738 117.890,126.389 119.548 M186.979 125.391 L 186.979 129.167 188.348 129.167 C 191.214 129.167,192.511 128.336,192.979 126.202 C 193.627 123.246,192.174 121.615,188.894 121.615 L 186.979 121.615 186.979 125.391 M143.901 126.827 C 143.197 127.102,142.254 127.682,141.806 128.117 C 140.749 129.141,140.625 129.114,140.625 127.865 L 140.625 126.823 137.500 126.823 L 134.375 126.823 134.375 137.109 L 134.375 147.396 137.826 147.396 L 141.276 147.396 141.229 142.122 C 141.163 134.665,141.289 133.410,142.199 132.500 C 143.220 131.479,145.181 131.450,146.113 132.442 L 146.745 133.114 146.822 140.255 L 146.899 147.396 150.402 147.396 L 153.906 147.396 153.901 140.299 C 153.895 132.528,153.692 130.831,152.532 128.852 C 151.137 126.471,147.187 125.544,143.901 126.827 M162.850 126.573 C 153.090 128.504,152.907 144.711,162.613 147.532 C 165.593 148.399,172.223 147.687,173.865 146.324 C 174.119 146.113,174.219 145.309,174.219 143.466 L 174.219 140.903 173.372 141.386 C 168.823 143.982,163.504 143.085,162.491 139.550 L 162.276 138.802 168.665 138.802 L 175.055 138.802 174.962 135.736 C 174.746 128.570,170.188 125.121,162.850 126.573 M214.677 126.832 C 219.208 128.527,221.681 134.675,220.318 140.853 C 218.011 151.310,203.557 151.142,201.564 140.636 C 199.688 130.743,206.360 123.720,214.677 126.832 M235.207 127.009 C 239.903 129.133,241.953 136.706,239.562 143.097 C 236.887 150.245,225.472 150.328,222.284 143.222 C 220.010 138.157,221.261 130.730,224.849 127.993 C 227.173 126.221,232.372 125.727,235.207 127.009 M274.309 127.342 C 277.147 129.063,278.386 131.631,278.579 136.198 L 278.706 139.193 272.793 139.114 L 266.880 139.034 267.064 139.895 C 267.799 143.333,271.920 144.280,276.389 142.038 C 277.081 141.690,277.696 141.406,277.756 141.406 C 277.816 141.406,277.865 142.622,277.865 144.109 L 277.865 146.811 276.628 147.340 C 273.403 148.720,268.496 148.811,265.694 147.543 C 257.736 143.939,258.143 129.307,266.276 126.650 C 268.440 125.943,272.590 126.301,274.309 127.342 M293.750 129.427 L 293.750 132.552 291.988 132.552 C 287.832 132.552,287.409 133.365,287.240 141.667 L 287.109 148.047 283.724 148.047 L 280.339 148.047 280.339 137.370 L 280.339 126.693 283.659 126.620 L 286.979 126.547 286.982 128.313 L 286.984 130.078 287.628 129.005 C 288.650 127.298,290.397 126.306,292.383 126.304 L 293.750 126.302 293.750 129.427 M124.740 137.232 L 124.740 147.396 128.258 147.396 L 131.777 147.396 131.709 137.305 L 131.641 127.214 128.190 127.141 L 124.740 127.068 124.740 137.232 M167.843 131.515 C 168.194 131.845,168.552 132.535,168.639 133.049 C 168.725 133.564,168.852 134.189,168.920 134.440 C 169.035 134.857,168.757 134.896,165.631 134.896 L 162.216 134.896 162.393 133.919 C 162.926 130.973,165.880 129.670,167.843 131.515 M268.260 131.414 C 267.570 131.897,266.927 133.259,266.927 134.236 L 266.927 134.896 269.803 134.896 L 272.680 134.896 272.503 133.919 C 272.028 131.295,270.075 130.143,268.260 131.414 M209.715 131.901 C 207.875 133.189,207.638 140.711,209.382 142.455 C 211.759 144.832,213.672 142.506,213.672 137.240 C 213.672 132.191,212.178 130.175,209.715 131.901 M229.306 132.128 C 227.568 133.867,227.679 141.067,229.467 142.572 C 232.011 144.712,233.762 142.149,233.541 136.610 C 233.358 132.025,231.440 129.995,229.306 132.128 M186.931 135.450 C 186.871 136.076,186.872 137.907,186.933 139.518 L 187.045 142.448 188.770 142.448 C 191.626 142.447,193.073 141.367,193.393 138.997 C 193.786 136.090,192.386 134.621,189.040 134.427 L 187.040 134.312 186.931 135.450 " stroke="none" fill="#fbfbfb" fill-rule="evenodd"></path><path id="path2" d="M114.453 100.945 C 113.880 101.158,112.498 101.598,111.381 101.924 C 108.786 102.681,108.737 102.581,112.810 104.862 L 116.276 106.804 118.490 106.227 C 119.707 105.909,121.280 105.454,121.985 105.216 L 123.266 104.782 119.678 102.651 C 115.764 100.328,115.950 100.388,114.453 100.945 M119.226 109.877 C 117.841 109.959,116.632 110.102,116.540 110.195 C 116.161 110.576,112.511 115.769,112.506 115.934 C 112.500 116.109,116.047 115.992,118.620 115.733 L 119.922 115.602 121.810 112.807 C 122.848 111.270,123.698 109.928,123.698 109.824 C 123.698 109.628,123.383 109.631,119.226 109.877 M241.927 131.771 L 241.927 147.917 245.177 147.917 L 248.426 147.917 248.497 142.916 L 248.568 137.915 251.326 142.851 L 254.084 147.786 258.033 147.858 L 261.982 147.930 258.902 143.301 C 257.208 140.755,255.551 138.184,255.220 137.587 L 254.617 136.503 256.439 133.811 C 257.442 132.331,258.935 130.182,259.758 129.036 L 261.253 126.953 257.662 126.880 C 254.997 126.826,253.994 126.894,253.773 127.141 C 253.520 127.424,251.718 130.324,249.196 134.505 L 248.568 135.547 248.500 125.586 L 248.431 115.625 245.179 115.625 L 241.927 115.625 241.927 131.771 M179.837 116.115 C 179.725 116.295,179.806 147.531,179.919 147.874 C 179.935 147.922,183.083 147.921,186.914 147.873 L 193.880 147.786 195.521 147.028 C 202.300 143.900,202.080 133.893,195.182 131.645 C 194.746 131.503,194.868 131.376,195.924 130.866 C 201.589 128.133,201.268 119.424,195.408 116.912 C 193.249 115.987,180.325 115.325,179.837 116.115 M191.351 121.872 C 195.360 123.692,193.301 129.165,188.607 129.166 L 186.719 129.167 186.719 125.260 L 186.719 121.354 188.477 121.360 C 189.652 121.364,190.605 121.534,191.351 121.872 M208.391 126.579 C 203.560 127.531,200.713 132.796,201.544 139.241 C 202.348 145.472,205.375 148.314,211.198 148.303 C 216.404 148.293,219.296 145.635,220.259 139.974 C 221.790 130.984,216.475 124.986,208.391 126.579 M228.319 126.568 C 222.852 127.950,219.967 134.408,221.753 141.267 C 224.360 151.273,238.440 150.773,240.087 140.617 C 241.638 131.061,236.205 124.576,228.319 126.568 M266.737 126.686 C 258.748 128.937,257.552 143.102,265.017 147.065 C 268.337 148.827,273.604 148.805,277.068 147.013 L 277.865 146.601 277.865 144.134 C 277.865 141.389,277.889 141.414,276.113 142.306 C 271.985 144.380,267.539 143.254,267.011 140.002 L 266.859 139.063 272.752 139.063 L 278.646 139.063 278.646 137.615 C 278.646 129.267,273.698 124.726,266.737 126.686 M290.895 126.608 C 289.586 126.983,288.583 127.782,287.729 129.127 L 286.979 130.310 286.979 128.567 L 286.979 126.823 283.730 126.823 L 280.481 126.823 280.410 136.654 C 280.371 142.061,280.376 146.807,280.421 147.201 L 280.503 147.917 283.741 147.917 L 286.979 147.917 286.991 142.513 C 287.009 133.889,287.690 132.425,291.684 132.423 L 293.489 132.422 293.489 129.362 L 293.490 126.302 292.643 126.326 C 292.178 126.338,291.391 126.466,290.895 126.608 M271.220 131.294 C 272.018 131.921,272.656 133.229,272.656 134.236 L 272.656 134.896 269.650 134.896 L 266.643 134.896 266.817 133.919 C 267.296 131.227,269.480 129.925,271.220 131.294 M212.797 132.264 C 214.808 134.468,214.220 142.120,211.968 143.067 C 209.405 144.144,207.864 141.435,208.132 136.320 C 208.367 131.818,210.612 129.867,212.797 132.264 M232.021 131.635 C 234.042 132.681,234.483 140.261,232.649 142.440 C 231.294 144.050,229.027 143.268,228.357 140.960 C 226.807 135.625,228.991 130.068,232.021 131.635 M191.595 134.728 C 193.996 135.970,194.268 140.372,192.034 141.836 C 191.189 142.390,188.960 142.761,187.695 142.558 L 186.719 142.402 186.719 138.408 C 186.719 134.828,186.766 134.399,187.174 134.278 C 187.963 134.045,190.839 134.338,191.595 134.728 " stroke="none" fill="#d8161c" fill-rule="evenodd"></path><path id="path3" d="M98.698 105.592 C 98.698 105.684,99.840 106.292,101.237 106.943 C 105.531 108.945,106.510 109.354,106.510 109.146 C 106.510 109.035,104.852 108.192,102.824 107.272 C 98.415 105.271,98.698 105.386,98.698 105.592 M156.836 106.950 C 157.087 107.016,157.497 107.016,157.747 106.950 C 157.998 106.885,157.793 106.831,157.292 106.831 C 156.790 106.831,156.585 106.885,156.836 106.950 M152.018 107.215 C 152.340 107.277,152.868 107.277,153.190 107.215 C 153.512 107.153,153.249 107.102,152.604 107.102 C 151.960 107.102,151.696 107.153,152.018 107.215 M147.852 107.475 C 148.174 107.538,148.701 107.538,149.023 107.475 C 149.346 107.413,149.082 107.363,148.438 107.363 C 147.793 107.363,147.529 107.413,147.852 107.475 M142.904 107.740 C 143.369 107.798,144.131 107.798,144.596 107.740 C 145.062 107.683,144.681 107.635,143.750 107.635 C 142.819 107.635,142.438 107.683,142.904 107.740 M138.216 107.996 C 138.538 108.058,139.066 108.058,139.388 107.996 C 139.710 107.934,139.447 107.883,138.802 107.883 C 138.158 107.883,137.894 107.934,138.216 107.996 M134.049 108.257 C 134.372 108.319,134.899 108.319,135.221 108.257 C 135.544 108.195,135.280 108.144,134.635 108.144 C 133.991 108.144,133.727 108.195,134.049 108.257 M149.284 108.259 C 149.678 108.319,150.322 108.319,150.716 108.259 C 151.110 108.200,150.788 108.151,150.000 108.151 C 149.212 108.151,148.890 108.200,149.284 108.259 M128.975 108.520 C 129.371 108.580,129.957 108.578,130.277 108.517 C 130.597 108.455,130.273 108.406,129.557 108.408 C 128.841 108.410,128.579 108.460,128.975 108.520 M124.287 108.781 C 124.683 108.840,125.269 108.839,125.590 108.777 C 125.910 108.715,125.586 108.666,124.870 108.668 C 124.154 108.670,123.892 108.721,124.287 108.781 M119.596 109.041 C 119.990 109.100,120.635 109.100,121.029 109.041 C 121.423 108.981,121.100 108.932,120.313 108.932 C 119.525 108.932,119.202 108.981,119.596 109.041 M134.053 109.038 C 134.376 109.101,134.845 109.098,135.094 109.033 C 135.343 108.968,135.078 108.917,134.505 108.920 C 133.932 108.923,133.729 108.976,134.053 109.038 M109.375 110.656 C 109.375 110.885,110.945 111.538,111.107 111.376 C 111.153 111.329,110.783 111.096,110.283 110.858 C 109.784 110.620,109.375 110.529,109.375 110.656 M130.273 115.291 C 130.667 115.350,131.312 115.350,131.706 115.291 C 132.100 115.231,131.777 115.182,130.990 115.182 C 130.202 115.182,129.880 115.231,130.273 115.291 M157.366 118.620 C 157.368 119.336,157.419 119.598,157.479 119.202 C 157.538 118.806,157.537 118.220,157.475 117.900 C 157.413 117.580,157.364 117.904,157.366 118.620 M96.287 117.892 L 96.871 118.004 96.940 132.765 L 97.010 147.526 97.073 132.617 L 97.135 117.708 96.419 117.744 C 95.808 117.774,95.789 117.796,96.287 117.892 M114.512 118.157 C 114.975 118.214,115.795 118.215,116.335 118.159 C 116.876 118.102,116.497 118.055,115.495 118.054 C 114.492 118.053,114.050 118.099,114.512 118.157 M122.467 121.094 C 122.467 121.738,122.518 122.002,122.580 121.680 C 122.642 121.357,122.642 120.830,122.580 120.508 C 122.518 120.186,122.467 120.449,122.467 121.094 M104.541 122.201 L 103.776 123.047 104.622 122.282 C 105.088 121.861,105.469 121.480,105.469 121.436 C 105.469 121.234,105.254 121.412,104.541 122.201 M157.618 123.568 C 157.621 124.141,157.674 124.344,157.736 124.020 C 157.799 123.696,157.796 123.228,157.731 122.979 C 157.666 122.730,157.615 122.995,157.618 123.568 M162.305 125.180 C 162.555 125.245,162.965 125.245,163.216 125.180 C 163.467 125.114,163.262 125.060,162.760 125.060 C 162.259 125.060,162.054 125.114,162.305 125.180 M146.554 126.230 C 147.022 126.288,147.725 126.287,148.117 126.228 C 148.508 126.168,148.125 126.121,147.266 126.122 C 146.406 126.124,146.086 126.172,146.554 126.230 M165.039 126.230 C 165.505 126.288,166.266 126.288,166.732 126.230 C 167.197 126.172,166.816 126.125,165.885 126.125 C 164.954 126.125,164.574 126.172,165.039 126.230 M136.003 126.752 C 136.540 126.808,137.419 126.808,137.956 126.752 C 138.493 126.696,138.053 126.650,136.979 126.650 C 135.905 126.650,135.465 126.696,136.003 126.752 M134.208 129.167 C 134.208 130.527,134.252 131.084,134.306 130.404 C 134.360 129.723,134.360 128.610,134.306 127.930 C 134.252 127.249,134.208 127.806,134.208 129.167 M173.698 127.425 C 173.698 127.470,174.079 127.851,174.544 128.272 L 175.391 129.036 174.626 128.190 C 173.913 127.401,173.698 127.224,173.698 127.425 M141.531 128.131 C 141.167 128.534,141.004 128.580,140.843 128.326 C 140.690 128.085,140.632 128.118,140.629 128.451 C 140.623 129.081,140.948 129.020,141.667 128.255 C 142.003 127.897,142.217 127.604,142.143 127.604 C 142.069 127.604,141.793 127.841,141.531 128.131 M124.605 137.630 L 124.609 147.526 128.190 147.537 L 131.772 147.549 128.259 147.465 L 124.746 147.381 124.673 137.558 L 124.600 127.734 124.605 137.630 M158.187 128.971 L 157.422 129.818 158.268 129.053 C 158.734 128.632,159.115 128.251,159.115 128.206 C 159.115 128.005,158.900 128.182,158.187 128.971 M165.303 130.913 C 165.626 130.976,166.095 130.973,166.344 130.908 C 166.593 130.843,166.328 130.792,165.755 130.795 C 165.182 130.798,164.979 130.851,165.303 130.913 M175.092 136.589 C 175.092 137.878,175.136 138.438,175.190 137.833 C 175.245 137.229,175.246 136.174,175.192 135.490 C 175.138 134.805,175.093 135.299,175.092 136.589 M177.930 137.370 C 177.933 137.943,177.986 138.146,178.049 137.822 C 178.111 137.499,178.109 137.030,178.044 136.781 C 177.978 136.532,177.927 136.797,177.930 137.370 M177.936 139.583 C 177.936 140.228,177.986 140.492,178.048 140.169 C 178.110 139.847,178.110 139.320,178.048 138.997 C 177.986 138.675,177.936 138.939,177.936 139.583 M134.235 143.424 L 134.245 147.526 137.826 147.537 L 141.407 147.549 137.898 147.465 L 134.388 147.381 134.306 143.352 L 134.224 139.322 134.235 143.424 M122.335 142.122 C 122.465 146.348,122.562 146.764,122.609 143.294 C 122.635 141.396,122.568 139.843,122.461 139.843 C 122.354 139.843,122.297 140.868,122.335 142.122 M167.125 142.893 C 167.449 142.955,167.918 142.952,168.167 142.887 C 168.416 142.822,168.151 142.771,167.578 142.774 C 167.005 142.777,166.801 142.830,167.125 142.893 M146.702 146.875 L 146.745 147.526 150.326 147.537 L 153.907 147.549 150.408 147.465 C 147.036 147.384,146.905 147.360,146.784 146.803 C 146.677 146.305,146.665 146.315,146.702 146.875 M165.299 148.107 C 165.908 148.162,166.904 148.162,167.513 148.107 C 168.122 148.053,167.624 148.008,166.406 148.008 C 165.189 148.008,164.691 148.053,165.299 148.107 M108.796 149.149 C 109.408 149.204,110.346 149.204,110.879 149.148 C 111.413 149.092,110.911 149.047,109.766 149.048 C 108.620 149.049,108.183 149.094,108.796 149.149 M112.960 149.147 C 113.428 149.205,114.132 149.204,114.523 149.144 C 114.914 149.085,114.531 149.038,113.672 149.039 C 112.813 149.040,112.492 149.089,112.960 149.147 M136.003 149.154 C 142.126 149.192,152.145 149.192,158.268 149.154 C 164.391 149.115,159.382 149.083,147.135 149.083 C 134.889 149.083,129.880 149.115,136.003 149.154 " stroke="none" fill="#969797" fill-rule="evenodd"></path><path id="path4" d="M248.378 125.441 C 248.418 130.969,248.511 135.430,248.586 135.355 C 248.798 135.143,248.710 115.794,248.497 115.580 C 248.392 115.475,248.339 119.913,248.378 125.441 M241.794 131.771 L 241.797 148.047 245.182 148.047 L 248.568 148.047 248.698 143.139 C 248.770 140.439,248.740 138.176,248.633 138.110 C 248.525 138.044,248.438 140.224,248.438 142.953 L 248.438 147.917 245.184 147.917 L 241.931 147.917 241.861 131.706 L 241.791 115.495 241.794 131.771 M157.352 116.667 C 157.352 117.168,157.406 117.373,157.471 117.122 C 157.537 116.872,157.537 116.462,157.471 116.211 C 157.406 115.960,157.352 116.165,157.352 116.667 M179.758 117.448 C 179.758 118.092,179.809 118.356,179.871 118.034 C 179.933 117.712,179.933 117.184,179.871 116.862 C 179.809 116.540,179.758 116.803,179.758 117.448 M186.776 125.326 L 186.834 129.297 186.913 125.467 L 186.993 121.638 188.744 121.547 L 190.495 121.456 188.607 121.405 L 186.719 121.354 186.776 125.326 M293.590 129.427 C 293.590 131.217,293.632 131.950,293.682 131.055 C 293.733 130.160,293.733 128.695,293.682 127.799 C 293.632 126.904,293.590 127.637,293.590 129.427 M253.625 127.018 C 253.332 127.406,253.335 127.425,253.645 127.148 C 254.144 126.704,261.317 126.679,261.043 127.124 C 260.928 127.310,260.971 127.354,261.158 127.238 C 261.993 126.722,261.179 126.563,257.714 126.563 C 254.453 126.563,253.926 126.621,253.625 127.018 M280.327 126.889 C 280.258 127.069,280.234 131.551,280.273 136.850 L 280.345 146.484 280.407 136.661 L 280.469 126.838 283.789 126.757 L 287.109 126.676 283.781 126.619 C 281.310 126.577,280.420 126.647,280.327 126.889 M224.072 128.711 L 223.307 129.557 224.154 128.792 C 224.619 128.372,225.000 127.991,225.000 127.946 C 225.000 127.745,224.785 127.922,224.072 128.711 M269.336 130.909 C 269.587 130.974,269.997 130.974,270.247 130.909 C 270.498 130.843,270.293 130.790,269.792 130.790 C 269.290 130.790,269.085 130.843,269.336 130.909 M291.215 132.479 C 291.610 132.538,292.196 132.537,292.517 132.475 C 292.837 132.413,292.513 132.364,291.797 132.366 C 291.081 132.368,290.819 132.419,291.215 132.479 M188.090 134.301 C 188.485 134.361,189.071 134.360,189.392 134.298 C 189.712 134.236,189.388 134.187,188.672 134.189 C 187.956 134.191,187.694 134.242,188.090 134.301 M186.784 135.286 C 186.787 135.859,186.841 136.063,186.903 135.739 C 186.965 135.415,186.963 134.946,186.898 134.697 C 186.832 134.449,186.782 134.714,186.784 135.286 M201.363 135.417 C 201.363 135.918,201.416 136.123,201.482 135.872 C 201.547 135.622,201.547 135.212,201.482 134.961 C 201.416 134.710,201.363 134.915,201.363 135.417 M141.227 136.589 C 141.228 137.448,141.277 137.768,141.335 137.300 C 141.393 136.832,141.391 136.129,141.332 135.738 C 141.272 135.346,141.225 135.729,141.227 136.589 M233.679 137.109 C 233.680 138.112,233.727 138.490,233.784 137.950 C 233.840 137.410,233.839 136.589,233.782 136.127 C 233.724 135.665,233.678 136.107,233.679 137.109 M213.885 137.240 C 213.885 138.171,213.933 138.551,213.990 138.086 C 214.048 137.620,214.048 136.859,213.990 136.393 C 213.933 135.928,213.885 136.309,213.885 137.240 M227.948 137.240 C 227.948 138.171,227.995 138.551,228.053 138.086 C 228.111 137.620,228.111 136.859,228.053 136.393 C 227.995 135.928,227.948 136.309,227.948 137.240 M259.977 137.109 C 259.978 137.969,260.027 138.289,260.085 137.821 C 260.143 137.353,260.141 136.650,260.082 136.258 C 260.022 135.867,259.975 136.250,259.977 137.109 M221.179 137.630 C 221.180 138.633,221.227 139.011,221.284 138.471 C 221.340 137.930,221.339 137.110,221.282 136.648 C 221.224 136.186,221.178 136.628,221.179 137.630 M240.439 137.109 C 240.441 137.826,240.492 138.088,240.551 137.692 C 240.611 137.296,240.610 136.710,240.548 136.390 C 240.486 136.069,240.437 136.393,240.439 137.109 M287.039 142.253 L 286.979 147.917 283.741 147.917 L 280.503 147.917 280.383 147.201 C 280.269 146.520,280.265 146.523,280.301 147.266 L 280.339 148.047 283.664 148.120 C 287.666 148.208,287.270 148.893,287.174 142.051 L 287.098 136.589 287.039 142.253 M186.814 139.974 C 186.815 141.406,186.858 141.959,186.911 141.202 C 186.964 140.445,186.963 139.274,186.910 138.598 C 186.856 137.923,186.813 138.542,186.814 139.974 M201.363 139.063 C 201.363 139.564,201.416 139.769,201.482 139.518 C 201.547 139.268,201.547 138.857,201.482 138.607 C 201.416 138.356,201.363 138.561,201.363 139.063 M220.373 139.583 C 220.373 140.085,220.427 140.290,220.492 140.039 C 220.558 139.788,220.558 139.378,220.492 139.128 C 220.427 138.877,220.373 139.082,220.373 139.583 M200.326 139.974 C 200.329 140.547,200.382 140.751,200.445 140.427 C 200.507 140.103,200.505 139.634,200.439 139.385 C 200.374 139.136,200.323 139.401,200.326 139.974 M179.768 140.755 C 179.770 141.615,179.818 141.935,179.876 141.467 C 179.934 140.999,179.933 140.296,179.874 139.904 C 179.814 139.513,179.767 139.896,179.768 140.755 M141.242 142.969 C 141.242 144.473,141.285 145.088,141.338 144.336 C 141.390 143.584,141.390 142.354,141.338 141.602 C 141.285 140.850,141.242 141.465,141.242 142.969 M188.086 142.627 C 188.337 142.693,188.747 142.693,188.997 142.627 C 189.248 142.562,189.043 142.508,188.542 142.508 C 188.040 142.508,187.835 142.562,188.086 142.627 M179.773 144.661 C 179.774 145.664,179.821 146.042,179.878 145.502 C 179.934 144.962,179.933 144.141,179.875 143.679 C 179.818 143.217,179.772 143.659,179.773 144.661 M197.903 145.508 L 197.005 146.484 197.982 145.587 C 198.891 144.752,199.078 144.531,198.879 144.531 C 198.836 144.531,198.396 144.971,197.903 145.508 M203.385 145.134 C 203.385 145.178,203.766 145.559,204.232 145.980 L 205.078 146.745 204.313 145.898 C 203.600 145.110,203.385 144.932,203.385 145.134 M179.771 147.526 C 179.823 148.030,180.019 148.047,185.876 148.054 L 191.927 148.062 185.956 147.984 C 180.557 147.915,179.971 147.864,179.851 147.456 C 179.749 147.113,179.730 147.130,179.771 147.526 M256.445 148.110 C 257.484 148.159,259.183 148.159,260.221 148.110 C 261.260 148.061,260.410 148.020,258.333 148.020 C 256.257 148.020,255.407 148.061,256.445 148.110 " stroke="none" fill="#ef9b9c" fill-rule="evenodd"></path></g></svg>